<svg width="410" height="242" viewBox="0 0 410 242" fill="none" xmlns="http://www.w3.org/2000/svg">
<path fill-rule="evenodd" clip-rule="evenodd" d="M319.191 21.925C323.036 11.2947 323.997 4.55912 322.075 1.71826C321.159 0.343655 319.923 -0.206189 318.367 0.0687289C316.902 0.252013 315.345 1.53498 313.697 3.91763C312.049 6.20865 310.539 8.86623 309.165 11.8904C307.884 14.8229 306.556 18.2594 305.183 22.1999C303.809 26.1405 302.756 29.4395 302.024 32.0971C301.292 34.6631 300.605 37.1374 299.964 39.52C295.103 57.9138 290.223 77.9595 285.324 99.6572C284.975 99.8424 284.684 100.141 284.448 100.553C277.032 112.558 266.183 122.776 251.9 131.206C253.823 128.549 255.471 125.754 256.844 122.821C258.218 119.889 259.179 117.231 259.728 114.849C260.369 112.374 260.69 110.175 260.69 108.25C260.598 104.218 259.179 101.79 256.432 100.965C252.221 99.6821 246.544 104.035 239.403 114.024C237.022 117.323 234.55 121.63 231.987 126.945C236.381 106.601 241.051 86.0276 245.995 65.2252C255.15 48.7299 261.88 34.7547 266.183 23.2996C270.486 11.8446 271.631 4.78823 269.616 2.13065C268.792 0.93932 267.602 0.481115 266.046 0.756033C263.116 1.30588 259.591 6.07119 255.471 15.052C251.442 23.9411 247.872 34.7089 244.759 47.3553C243.752 51.3875 242.47 56.7026 240.913 63.3008C240.822 63.5757 240.776 63.8506 240.776 64.1255C236.381 82.9119 232.033 102.156 227.729 121.859C223.335 141.562 221.092 152.467 221 154.575C221 155.216 221.229 155.766 221.687 156.224C222.053 156.774 222.556 157.095 223.197 157.187H223.609C224.983 157.187 225.852 156.591 226.219 155.4C227.317 151.826 228.599 148.206 230.064 144.54C230.797 145.732 231.804 146.098 233.085 145.64C237.389 144.174 241.646 142.387 245.857 140.279C250.161 138.263 254.967 135.559 260.278 132.169C265.588 128.87 270.761 124.746 275.796 119.797C278.188 117.403 280.425 114.906 282.506 112.306C280.775 120.187 279.04 128.274 277.304 136.567C274.008 152.513 271.536 165.434 269.888 175.331C268.514 183.396 267.874 188.436 267.965 190.452C268.057 192.56 268.743 193.843 270.025 194.301C270.391 194.393 270.712 194.439 270.986 194.439C271.719 194.439 272.406 194.072 273.046 193.339C273.687 192.606 274.191 191.827 274.557 191.002C274.832 190.269 275.244 189.123 275.793 187.565C276.068 186.832 276.068 186.145 275.793 185.504C275.427 184.862 274.878 184.404 274.145 184.129H273.87C275.335 173.499 278.677 155.629 283.896 130.519C289.206 105.501 294.745 81.4456 300.513 58.3522L300.788 58.0773C309.303 44.5144 315.437 32.4637 319.191 21.925ZM305.32 39.9324C312.645 26.0947 316.765 15.2353 317.68 7.35416C313.652 13.4024 309.532 24.2619 305.32 39.9324ZM265.084 8.31639C260.14 15.6476 255.471 27.6067 251.076 44.1937C259.042 28.0649 263.711 16.1058 265.084 8.31639ZM240.776 135.193C237.938 137.575 234.871 139.362 231.575 140.554C235.786 130.382 239.861 122.546 243.797 117.048C245.995 113.932 248.009 111.504 249.84 109.763C251.671 107.93 252.862 106.876 253.411 106.601C254.052 106.234 254.555 106.051 254.922 106.051C255.562 106.968 255.562 109.029 254.922 112.237C254.464 114.528 253.64 117.002 252.45 119.66C251.351 122.226 249.84 124.883 247.918 127.632C246.086 130.382 243.706 132.902 240.776 135.193ZM346.936 110.562C346.664 112.803 346.601 114.782 346.748 116.498C347.114 119.889 348.396 121.905 350.593 122.546C353.34 123.371 356.636 121.263 360.481 116.223C362.953 112.924 365.654 109.075 368.584 104.677C367.485 113.199 366.295 121.355 365.013 129.145C347.801 144.265 334.296 160.669 324.5 178.356C317.816 190.635 313.833 202.64 312.552 214.37C311.453 225.276 312.872 233.202 316.809 238.151C318.915 240.717 321.432 242 324.362 242C325.278 242 326.239 241.863 327.246 241.588C334.571 239.572 342.078 229.491 349.769 211.346C357.46 193.201 364.189 166.717 369.957 131.894C379.388 123.829 392.343 114.436 408.823 103.714C409.464 103.348 409.83 102.798 409.922 102.065C410.105 101.332 409.967 100.69 409.51 100.14C409.143 99.4988 408.594 99.0864 407.862 98.9031C407.221 98.7199 406.58 98.8573 405.939 99.3155C391.29 108.755 379.708 116.956 371.193 123.921C372.658 114.299 374.031 104.218 375.313 93.6796C375.496 92.2134 374.901 91.297 373.528 90.9304C372.155 90.4722 371.102 90.8388 370.369 92.0301C366.799 98.3533 362.083 105.364 356.224 113.062C354.576 115.169 353.248 116.544 352.241 117.185C351.417 114.62 352.15 109.579 354.438 102.065C356.727 94.4586 359.795 88.9143 363.64 85.432C367.027 82.4078 370.369 82.4078 373.665 85.432C374.215 85.8902 374.855 86.1193 375.588 86.1193C376.32 86.0276 376.916 85.7069 377.373 85.1571C377.923 84.6072 378.152 84.0115 378.06 83.3701C378.06 82.6369 377.785 81.9955 377.236 81.4456C372.841 77.5051 368.309 76.7261 363.64 79.1088C360.252 80.7583 357.139 84.0574 354.301 89.006C352.142 92.7713 350.432 96.5897 349.174 100.461C348.974 100.6 348.792 100.768 348.628 100.965C345.606 104.906 341.944 108.113 337.641 110.587C333.429 113.062 329.584 113.932 326.105 113.199C326.288 112.283 326.425 111.366 326.517 110.45C326.7 106.784 326.608 103.623 326.242 100.965C325.876 98.3075 325.281 96.3372 324.457 95.0542C323.724 93.7713 322.946 92.8549 322.122 92.305C321.39 91.6635 320.566 91.2512 319.65 91.0679C318.002 90.793 316.4 91.2053 314.843 92.305C313.378 93.4047 312.234 94.9626 311.41 96.9787C310.586 96.7038 309.853 96.7954 309.213 97.2536C306.191 99.1781 303.902 102.202 302.346 106.326C300.698 110.358 300.469 114.62 301.659 119.11C302.392 121.951 303.673 124.196 305.505 125.845C307.427 127.403 309.625 128.228 312.097 128.32H312.234C314.706 128.32 317.086 127.449 319.375 125.708C321.664 123.875 323.45 121.401 324.731 118.285C329.309 119.293 334.207 118.423 339.426 115.673C342.125 114.251 344.629 112.548 346.936 110.562ZM312.234 122.959C313.516 122.959 314.843 122.363 316.217 121.172C317.682 119.98 318.872 118.377 319.787 116.361C313.836 113.062 310.723 108.571 310.449 102.89C308.617 104.631 307.336 106.968 306.603 109.9C305.962 112.833 306.008 115.398 306.741 117.598C307.748 121.172 309.579 122.959 312.234 122.959ZM321.161 110.175C321.344 107.976 321.344 106.097 321.161 104.539C321.069 102.89 320.932 101.561 320.749 100.553C320.566 99.5446 320.337 98.7199 320.062 98.0784C319.787 97.4369 319.513 96.9787 319.238 96.7038C319.055 96.4288 318.918 96.2914 318.826 96.2914H318.689C318.322 96.2914 317.865 96.6121 317.315 97.2536C316.766 97.8035 316.354 98.5824 316.079 99.5905C315.53 101.515 315.622 103.485 316.354 105.501C317.086 107.517 318.689 109.35 321.161 111V110.175ZM333.838 229.903C330.909 233.661 328.208 235.86 325.736 236.502C323.904 237.051 322.302 236.502 320.929 234.852C319.922 233.477 319.098 231.599 318.457 229.216C317.816 226.833 317.496 223.901 317.496 220.419C317.496 217.028 317.862 213.316 318.594 209.284C319.327 205.252 320.608 200.762 322.44 195.813C324.179 190.865 326.422 185.916 329.169 180.967C337.684 165.48 349.174 151.047 363.64 137.667C360.619 154.712 357.277 169.787 353.614 182.892C350.044 195.996 346.565 206.169 343.177 213.408C339.789 220.648 336.677 226.146 333.838 229.903ZM0 0V69H198V0H0ZM0 86V148L94 242H198.039V173H118L65 120V86H0ZM66.5 242H0V178.5L66.5 242ZM84 86V113L127 156H183V86H84Z" fill="black"/>
</svg>
