<svg width="454" height="242" viewBox="0 0 454 242" fill="none" xmlns="http://www.w3.org/2000/svg">
<path fill-rule="evenodd" clip-rule="evenodd" d="M0 0V69H198V0H0ZM0 86V148L94 242H198.039V173H118L65 120V86H0ZM66.5 242H0V178.5L66.5 242ZM84 86V113L127 156H183V86H84ZM361.36 59.2851C361.787 59.7971 361.957 60.3944 361.872 61.0771C361.787 61.7598 361.488 62.3144 360.976 62.7411C359.952 63.5944 358.928 63.5944 357.904 62.7411C354.405 61.5464 332.389 61.2478 291.856 61.8451C286.224 85.3118 280.549 110.741 274.832 138.133C268.005 170.986 263.867 193.557 262.416 205.845C262.587 205.845 262.757 205.888 262.928 205.973C263.611 206.229 264.08 206.656 264.336 207.253C264.592 207.85 264.635 208.49 264.464 209.173C263.952 210.453 263.525 211.392 263.184 211.989C262.928 212.672 262.501 213.312 261.904 213.909C261.307 214.592 260.667 214.933 259.984 214.933C259.728 214.933 259.429 214.89 259.088 214.805C257.979 214.464 257.296 213.568 257.04 212.117C256.869 210.666 256.997 208.746 257.424 206.357C257.765 202.688 258.533 197.525 259.728 190.869C261.861 177.984 265.061 161.301 269.328 140.821C275.045 112.917 280.891 86.5918 286.864 61.8451C285.243 61.9304 283.621 61.9731 282 61.9731C269.2 84.9278 252.347 116.245 231.44 155.925C233.317 161.813 233.659 167.701 232.464 173.589C231.013 181.098 227.728 187.242 222.608 192.021C220.56 193.984 218.597 195.221 216.72 195.733C214.843 196.245 213.264 196.032 211.984 195.093C208.827 192.618 209.637 186.773 214.416 177.557L217.872 171.157C221.456 164.245 224.187 159.04 226.064 155.541C225.125 153.237 223.931 150.976 222.48 148.757C218.384 142.613 215.269 137.365 213.136 133.013C211.003 128.661 210.064 124.693 210.32 121.109C210.491 117.781 211.387 114.752 213.008 112.021C214.629 109.205 216.848 106.944 219.664 105.237C222.053 103.786 224.571 102.976 227.216 102.805C229.861 102.549 232.251 102.933 234.384 103.957C235.067 104.213 235.493 104.682 235.664 105.365C235.92 105.962 235.877 106.602 235.536 107.285C235.28 107.882 234.811 108.309 234.128 108.565C233.531 108.736 232.933 108.65 232.336 108.309C229.264 106.858 225.893 107.242 222.224 109.461C217.787 112.106 215.44 116.074 215.184 121.365C215.013 124.266 215.909 127.722 217.872 131.733C219.92 135.658 222.821 140.437 226.576 146.069C227.429 147.349 228.197 148.672 228.88 150.037C248.251 113.429 264.037 84.1171 276.24 62.1011C264.976 62.2718 250 62.5704 231.312 62.9971C216.123 63.3384 207.205 63.5091 204.56 63.5091H204.432C203.835 63.5091 203.28 63.2958 202.768 62.8691C202.256 62.3571 202 61.7598 202 61.0771C202 60.3944 202.256 59.8398 202.768 59.4131C203.195 58.9011 203.749 58.6451 204.432 58.6451C207.163 58.6451 216.08 58.4744 231.184 58.1331C249.104 57.7064 265.061 57.3651 279.056 57.1091C284.859 46.6984 290.32 37.0984 295.44 28.3091C296.123 27.0291 297.104 26.6878 298.384 27.2851C299.749 27.7971 300.261 28.7358 299.92 30.1011C297.872 37.6104 295.611 46.5278 293.136 56.8531C305.936 56.5971 316.603 56.5118 325.136 56.5971C333.755 56.6824 340.368 56.7678 344.976 56.8531C349.669 56.8531 353.211 57.0664 355.6 57.4931C357.989 57.8344 359.44 58.1331 359.952 58.3891C360.549 58.5598 361.019 58.8584 361.36 59.2851ZM223.12 183.829C227.387 177.344 228.965 170.261 227.856 162.581C227.173 164.032 226.107 166.08 224.656 168.725C223.291 171.37 222.48 172.949 222.224 173.461L218.768 179.861C215.867 185.322 214.629 189.077 215.056 191.125C215.824 191.04 216.976 190.357 218.512 189.077C220.048 187.882 221.584 186.133 223.12 183.829ZM284.688 56.9811H286.096H288.016C288.869 53.3118 289.723 49.8558 290.576 46.6131C288.784 49.7704 286.821 53.2264 284.688 56.9811ZM331.97 129.591C331.899 130.391 331.857 131.191 331.843 131.989C331.758 136.938 333.08 140.394 335.811 142.357C339.992 144.661 344.899 141.717 350.531 133.525C353.518 129.258 356.334 124.992 358.979 120.725C357.528 128.234 356.12 135.957 354.755 143.893C352.366 158.4 350.659 170.09 349.635 178.965C348.952 184.512 348.568 188.693 348.483 191.509C348.483 194.41 348.654 196.288 348.995 197.141C349.422 198.08 350.104 198.72 351.043 199.061C351.384 199.146 351.726 199.189 352.067 199.189C353.603 199.189 355.139 197.568 356.675 194.325C356.931 193.728 356.931 193.088 356.675 192.405C356.504 191.808 356.12 191.338 355.523 190.997C354.84 190.741 354.158 190.741 353.475 190.997C353.731 182.89 355.779 167.445 359.619 144.661C361.838 131.349 364.184 118.805 366.659 107.029C369.646 101.397 372.419 95.5091 374.979 89.3651C377.539 83.2211 379.416 78.4424 380.611 75.0291C381.806 71.6158 383.342 67.0504 385.219 61.3331L386.627 57.1091C391.064 43.6264 392.174 35.7758 389.955 33.5571C389.102 32.6184 388.078 32.3624 386.883 32.7891C383.982 33.7278 380.227 40.7251 375.619 53.7811C371.096 66.7518 366.574 83.9464 362.051 105.365C361.71 106.048 361.326 106.73 360.899 107.413C360.472 103.829 358.766 101.61 355.779 100.757C352.792 99.8184 349.379 100.757 345.539 103.573C342.565 105.754 339.897 108.883 337.537 112.959C337.344 113.116 337.178 113.316 337.04 113.557C335.419 116.288 333.755 118.89 332.048 121.365C330.341 123.754 328.763 125.888 327.312 127.765C325.861 129.557 324.411 131.221 322.96 132.757C321.595 134.293 320.357 135.616 319.248 136.725C318.139 137.749 317.115 138.602 316.176 139.285C315.323 139.968 314.555 140.437 313.872 140.693C313.275 141.034 312.848 141.12 312.592 140.949C312.336 140.949 312.123 140.693 311.952 140.181C311.781 139.584 311.568 138.048 311.312 135.573C311.141 133.098 311.525 129.514 312.464 124.821C312.976 122.432 313.189 120.512 313.104 119.061C313.019 117.525 312.421 116.544 311.312 116.117C310.885 115.946 310.501 115.861 310.16 115.861C309.819 115.776 309.477 115.861 309.136 116.117C308.795 116.288 308.496 116.458 308.24 116.629C307.984 116.8 307.643 117.184 307.216 117.781C306.789 118.293 306.405 118.762 306.064 119.189C305.808 119.53 305.381 120.085 304.784 120.853C301.456 125.717 298.683 129.088 296.464 130.965C295.269 131.989 294.459 132.288 294.032 131.861C293.435 131.349 293.008 130.24 292.752 128.533C292.581 126.741 292.752 124.522 293.264 121.877C293.861 119.232 294.885 116.714 296.336 114.325C296.677 113.728 296.763 113.13 296.592 112.533C296.421 111.85 296.037 111.338 295.44 110.997C294.843 110.656 294.203 110.57 293.52 110.741C292.837 110.912 292.325 111.296 291.984 111.893C289.424 116.33 288.059 120.938 287.888 125.717C287.632 130.496 288.656 133.824 290.96 135.701C293.435 137.834 296.336 137.493 299.664 134.677C301.968 132.714 304.528 129.813 307.344 125.973C305.552 137.493 306.704 144.021 310.8 145.557C311.312 145.813 311.909 145.941 312.592 145.941C314.384 145.941 316.517 145.045 318.992 143.253C321.467 141.461 323.771 139.413 325.904 137.109C327.855 134.924 329.877 132.418 331.97 129.591ZM357.571 113.301C354.243 119.104 350.574 124.906 346.563 130.709C345.027 132.842 343.619 134.549 342.339 135.829C341.059 137.024 340.12 137.749 339.523 138.005C339.011 138.176 338.627 138.176 338.371 138.005C337.688 137.664 337.219 136.597 336.963 134.805C336.707 132.928 336.792 130.538 337.219 127.637C337.731 124.65 338.67 121.749 340.035 118.933C342.083 114.581 344.387 111.253 346.947 108.949C349.592 106.56 351.811 105.365 353.603 105.365H354.371C355.822 105.792 356.376 107.584 356.035 110.741C355.779 112.021 356.291 112.874 357.571 113.301ZM385.603 42.2611C384.835 45.9304 383.598 50.3678 381.891 55.5731C381.55 56.5971 381.08 58.0478 380.483 59.9251C377.326 69.7384 374.552 77.5464 372.163 83.3491C376.942 64.7464 381.422 51.0504 385.603 42.2611ZM410.658 119.192C411.713 117.722 412.694 116.277 413.603 114.855C413.905 120.077 416.803 124.209 422.299 127.253C421.446 129.13 420.336 130.624 418.971 131.733C417.691 132.842 416.454 133.397 415.259 133.397C412.784 133.397 411.078 131.733 410.139 128.405C409.456 126.357 409.414 123.968 410.011 121.237C410.191 120.517 410.407 119.835 410.658 119.192ZM404.817 126.696C404.928 127.721 405.124 128.76 405.403 129.813C406.086 132.458 407.28 134.549 408.987 136.085C410.779 137.536 412.827 138.304 415.131 138.389H415.259C417.563 138.389 419.782 137.578 421.915 135.957C424.048 134.25 425.712 131.946 426.907 129.045C431.174 129.984 435.739 129.173 440.603 126.613C445.467 124.053 449.648 120.512 453.147 115.989C453.574 115.477 453.744 114.88 453.659 114.197C453.574 113.514 453.232 112.96 452.635 112.533C452.123 112.106 451.526 111.936 450.843 112.021C450.16 112.106 449.606 112.405 449.179 112.917C446.363 116.586 442.95 119.573 438.939 121.877C435.014 124.181 431.43 124.992 428.187 124.309C428.358 123.456 428.486 122.602 428.571 121.749C428.742 118.336 428.656 115.392 428.315 112.917C427.974 110.442 427.419 108.608 426.651 107.413C425.968 106.218 425.243 105.365 424.475 104.853C423.792 104.256 423.024 103.872 422.171 103.701C420.635 103.445 419.142 103.829 417.691 104.853C416.326 105.877 415.259 107.328 414.491 109.205C413.723 108.949 413.04 109.034 412.443 109.461C410.108 110.947 408.242 113.137 406.846 116.031C403.166 121.333 398.964 126.14 394.24 130.453C388.437 135.829 384.427 138.048 382.208 137.109C382.037 137.024 381.824 136.896 381.568 136.725C381.397 136.469 381.141 135.829 380.8 134.805C380.544 133.696 380.373 132.33 380.288 130.709C380.288 129.088 380.501 126.741 380.928 123.669C381.44 120.512 382.208 116.885 383.232 112.789C383.403 112.192 383.317 111.594 382.976 110.997C382.635 110.4 382.123 110.016 381.44 109.845C380.843 109.674 380.245 109.76 379.648 110.101C379.051 110.442 378.667 110.954 378.496 111.637C373.973 129.216 374.571 139.242 380.288 141.717C381.056 142.058 381.952 142.229 382.976 142.229C385.877 142.229 389.419 140.608 393.6 137.365C397.792 134.179 401.531 130.623 404.817 126.696ZM382.72 101.013C380.245 100.842 379.477 99.8184 380.416 97.9411C381.269 96.4051 382.379 95.3811 383.744 94.8691C385.877 94.1864 387.157 94.7411 387.584 96.5331C388.011 98.2398 387.371 99.5198 385.664 100.373C384.811 100.8 383.829 101.013 382.72 101.013ZM423.579 116.245C423.75 117.696 423.75 119.445 423.579 121.493V122.261C421.275 120.725 419.782 119.018 419.099 117.141C418.416 115.264 418.331 113.429 418.843 111.637C419.099 110.698 419.483 109.973 419.995 109.461C420.507 108.864 420.934 108.565 421.275 108.565H421.403C421.488 108.565 421.616 108.693 421.787 108.949C422.043 109.205 422.299 109.632 422.555 110.229C422.811 110.826 423.024 111.594 423.195 112.533C423.366 113.472 423.494 114.709 423.579 116.245Z" fill="black"/>
</svg>
